<?xml version="1.0" encoding="utf-8"?>
<!-- Generator: Adobe Illustrator 16.0.0, SVG Export Plug-In . SVG Version: 6.00 Build 0)  -->
<!DOCTYPE svg PUBLIC "-//W3C//DTD SVG 1.1//EN" "http://www.w3.org/Graphics/SVG/1.1/DTD/svg11.dtd">
<svg version="1.1" id="logo" xmlns="http://www.w3.org/2000/svg" xmlns:xlink="http://www.w3.org/1999/xlink" x="0px" y="0px"
	 width="843.89px" height="397.275px" viewBox="0 0 843.89 397.275" enable-background="new 0 0 843.89 597.275"
	 xml:space="preserve">
<g>
	<defs>
		<path id="logo-svgid-1" d="M552.533,296.49c0.044,16.132,0.397,36.844,1.125,62.108h-32.257c0.973-25.097,1.478-50.973,1.478-77.628
			v-0.432C532.14,287.849,543.896,293.215,552.533,296.49 M641.092,358.598h-32.258c0.412-14.02,0.715-26.988,0.902-38.922
			c12.955,4.942,24.457,8.784,30.218,9.2l0.07-1.07C640.287,338.659,640.643,348.923,641.092,358.598z M503.734,358.598h-37.277
			c0-3.501-6.42-15.525-19.26-36.148c-13.697-21.945-23.386-32.918-29.067-32.918h-3.424c0,17.314,0.428,40.351,1.245,69.066
			h-32.141c0.973-22.958,1.478-48.833,1.478-77.628c0-27.665-0.505-51.285-1.478-70.818h32.141
			c-0.817,21.09-1.245,40.818-1.245,59.301h2.49c3.346,0,11.789-9.339,25.331-28.054c13.152-18.172,19.728-28.562,19.728-31.247
			h33.97c0,2.53-6.966,11.985-20.896,28.405c-14.358,16.966-24.825,27.744-31.44,32.374v1.713
			c7.744,4.047,19.962,19.028,36.577,45.021C495.991,341.827,503.734,355.485,503.734,358.598z M358.596,318.13
			c0,29.729-21.362,44.554-64.047,44.554c-14.515,0-28.017-1.711-40.468-5.215l5.564-25.446c12.335,4.28,23.931,6.38,34.904,6.38
			c12.14,0,20.895-1.166,26.187-3.501c5.331-2.374,8.015-6.343,8.015-11.868c0-5.799-2.529-10.661-7.548-14.592
			c-4.32-3.502-13.113-8.056-26.343-13.697c-11.985-5.136-20.934-10.778-26.771-16.849c-7.355-7.665-11.05-17.16-11.05-28.405
			c0-13.073,4.824-23.268,14.513-30.662c9.689-7.354,23.62-11.05,41.791-11.05c14.904,0,27.394,1.245,37.511,3.774l-4.241,25.292
			c-10.234-3.735-21.324-5.564-33.27-5.564c-17.937,0-26.887,4.786-26.887,14.358c0,5.097,2.062,9.223,6.265,12.413
			c3.658,2.724,11.595,6.576,23.813,11.518c12.997,5.253,22.725,11.012,29.184,17.315
			C354.315,295.328,358.596,305.757,358.596,318.13z M620.702,134.668c1.616,6.684,27.312,25.327,27.376-7.624
			c0.018-9.605-2.915-16.409-6.407-23.727c-3.986-8.355-6.581-13.007-17.809-12.014c1.619,8.263,9.127,12.45,10.07,23.56
			C634.911,126.368,631.438,134.497,620.702,134.668z M629.874,291.892c-3.306,0.145-48.531-18.208-56.582-21.033
			c-21.084-7.399-38.735-14.063-50.711-29.647c-4.253,23.49,24.39,39.167,40.181,45.732c14.832,6.165,64.099,30.997,77.697,32.091
			c0.168-2.971,0.433-7.101,1.807-9.56c11.547,1.156,20.02,11.822,26.378,12.74c15.341-13.425,16.059-21.038,2.406-33.415
			c-9.86-8.939-53.676-24.392-53.626-30.335l27.166,4.751c14.79,6.366,21.084,10.106,33.284,18.111
			c2.721,1.787,12.674,9.448,16.022,8.848c0.459-0.082,19.418-15.35,21.315-17.779c5.661-7.254,7.349-22.065-31.749-41.072
			l-45.641-20.097c-1.806-2.178-0.994-0.955-1.375-4.801l-1.021-17.985c15.182,2.191,70.521,41.217,74.17,3.483
			c-9.124,1.208-9.798,5.125-27.196,1.819c-7.64-1.451-14.951-5.765-22.029-9.731c-14.006-7.85-26.362-18.42-38.636-26.998
			c-20.258-14.157-40.688-29.017-66.79-28.982c-7.747,0.011-21.493,1.58-26.119,5.857c8.965,6.922,32.32,6.036,45.422,13.322
			c10.333,5.748,23.405,20.49,35.92,24.618c0.711,8.892,0.71,20.402,0.883,29.284c0.511,25.982,2.519,20.892,22.714,26.818
			c9.658,2.833,32.221,13.098,37.49,20.738c-9.721,0.885-20.37,1.027-31.424,0.5c0.076-3.1,0.164-6.078,0.266-8.996
			c-2.91-1.029-5.528-1.854-7.607-2.401c-14.065-3.702-20.218-3.106-22.995-8.466c0.18,5.935,0.327,11.581,0.438,16.939
			c-20.21-2.953-40.22-7.835-57.054-14.248c0.207-7.087,0.468-14.37,0.781-21.848h-32.257v0.002l-0.04-0.069
			c-0.764,31.88,39.037,47.448,60.233,56.687c8.466,3.691,17.108,7.231,25.355,11.501
			C615.722,282.814,622.651,287.381,629.874,291.892z M559.431,234.981C562.591,235.967,563.397,236.363,559.431,234.981z
			 M242.796,210.151l-0.816,24.515c-15.176-1.129-29.495-1.713-42.958-1.713c-0.155,14.398-0.233,30.391-0.233,48.017
			c0,27.355,0.429,53.231,1.245,77.628h-31.907c0.973-24.163,1.479-50.039,1.479-77.628c0-17.315-0.156-33.347-0.467-48.017
			c-10.7,0-25.409,0.623-44.086,1.829l0.896-24.631H242.796z"/>
	</defs>
	<clipPath id="logo-svgid-2">
		<use xlink:href="#logo-svgid-1"  overflow="visible"/>
	</clipPath>
	<linearGradient id="logo-svgid-3" gradientUnits="userSpaceOnUse" x1="656.0908" y1="162.3101" x2="167.3708" y2="297.36">
		<stop  offset="0" style="stop-color:#B508FF"/>
		<stop  offset="0.0762" style="stop-color:#8F3FFE"/>
		<stop  offset="0.1609" style="stop-color:#6A75FC"/>
		<stop  offset="0.2438" style="stop-color:#4BA2FB"/>
		<stop  offset="0.3229" style="stop-color:#33C5FA"/>
		<stop  offset="0.3973" style="stop-color:#22DEFA"/>
		<stop  offset="0.465" style="stop-color:#18EDF9"/>
		<stop  offset="0.52" style="stop-color:#14F2F9"/>
		<stop  offset="1" style="stop-color:#00EB98"/>
	</linearGradient>
	<rect x="125.051" y="90.311" clip-path="url(#logo-svgid-2)" fill="url(#logo-svgid-3)" width="597.51" height="272.373"/>
</g>
<g>
	<defs>
		<path id="logo-svgid-4" d="M552.533,296.49c0.044,16.132,0.397,36.844,1.125,62.108h-32.257c0.973-25.097,1.478-50.973,1.478-77.628
			v-0.432C532.14,287.849,543.896,293.215,552.533,296.49 M641.092,358.598h-32.258c0.412-14.02,0.715-26.988,0.902-38.922
			c12.955,4.942,24.457,8.784,30.218,9.2l0.07-1.07C640.287,338.659,640.643,348.923,641.092,358.598z M503.734,358.598h-37.277
			c0-3.501-6.42-15.525-19.26-36.148c-13.697-21.945-23.386-32.918-29.067-32.918h-3.424c0,17.314,0.428,40.351,1.245,69.066
			h-32.141c0.973-22.958,1.478-48.833,1.478-77.628c0-27.665-0.505-51.285-1.478-70.818h32.141
			c-0.817,21.09-1.245,40.818-1.245,59.301h2.49c3.346,0,11.789-9.339,25.331-28.054c13.152-18.172,19.728-28.562,19.728-31.247
			h33.97c0,2.53-6.966,11.985-20.896,28.405c-14.358,16.966-24.825,27.744-31.44,32.374v1.713
			c7.744,4.047,19.962,19.028,36.577,45.021C495.991,341.827,503.734,355.485,503.734,358.598z M358.596,318.13
			c0,29.729-21.362,44.554-64.047,44.554c-14.515,0-28.017-1.711-40.468-5.215l5.564-25.446c12.335,4.28,23.931,6.38,34.904,6.38
			c12.14,0,20.895-1.166,26.187-3.501c5.331-2.374,8.015-6.343,8.015-11.868c0-5.799-2.529-10.661-7.548-14.592
			c-4.32-3.502-13.113-8.056-26.343-13.697c-11.985-5.136-20.934-10.778-26.771-16.849c-7.355-7.665-11.05-17.16-11.05-28.405
			c0-13.073,4.824-23.268,14.513-30.662c9.689-7.354,23.62-11.05,41.791-11.05c14.904,0,27.394,1.245,37.511,3.774l-4.241,25.292
			c-10.234-3.735-21.324-5.564-33.27-5.564c-17.937,0-26.887,4.786-26.887,14.358c0,5.097,2.062,9.223,6.265,12.413
			c3.658,2.724,11.595,6.576,23.813,11.518c12.997,5.253,22.725,11.012,29.184,17.315
			C354.315,295.328,358.596,305.757,358.596,318.13z M620.702,134.668c1.616,6.684,27.312,25.327,27.376-7.624
			c0.018-9.605-2.915-16.409-6.407-23.727c-3.986-8.355-6.581-13.007-17.809-12.014c1.619,8.263,9.127,12.45,10.07,23.56
			C634.911,126.368,631.438,134.497,620.702,134.668z M629.874,291.892c-3.306,0.145-48.531-18.208-56.582-21.033
			c-21.084-7.399-38.735-14.063-50.711-29.647c-4.253,23.49,24.39,39.167,40.181,45.732c14.832,6.165,64.099,30.997,77.697,32.091
			c0.168-2.971,0.433-7.101,1.807-9.56c11.547,1.156,20.02,11.822,26.378,12.74c15.341-13.425,16.059-21.038,2.406-33.415
			c-9.86-8.939-53.676-24.392-53.626-30.335l27.166,4.751c14.79,6.366,21.084,10.106,33.284,18.111
			c2.721,1.787,12.674,9.448,16.022,8.848c0.459-0.082,19.418-15.35,21.315-17.779c5.661-7.254,7.349-22.065-31.749-41.072
			l-45.641-20.097c-1.806-2.178-0.994-0.955-1.375-4.801l-1.021-17.985c15.182,2.191,70.521,41.217,74.17,3.483
			c-9.124,1.208-9.798,5.125-27.196,1.819c-7.64-1.451-14.951-5.765-22.029-9.731c-14.006-7.85-26.362-18.42-38.636-26.998
			c-20.258-14.157-40.688-29.017-66.79-28.982c-7.747,0.011-21.493,1.58-26.119,5.857c8.965,6.922,32.32,6.036,45.422,13.322
			c10.333,5.748,23.405,20.49,35.92,24.618c0.711,8.892,0.71,20.402,0.883,29.284c0.511,25.982,2.519,20.892,22.714,26.818
			c9.658,2.833,32.221,13.098,37.49,20.738c-9.721,0.885-20.37,1.027-31.424,0.5c0.076-3.1,0.164-6.078,0.266-8.996
			c-2.91-1.029-5.528-1.854-7.607-2.401c-14.065-3.702-20.218-3.106-22.995-8.466c0.18,5.935,0.327,11.581,0.438,16.939
			c-20.21-2.953-40.22-7.835-57.054-14.248c0.207-7.087,0.468-14.37,0.781-21.848h-32.257v0.002l-0.04-0.069
			c-0.764,31.88,39.037,47.448,60.233,56.687c8.466,3.691,17.108,7.231,25.355,11.501
			C615.722,282.814,622.651,287.381,629.874,291.892z M559.431,234.981C562.591,235.967,563.397,236.363,559.431,234.981z
			 M242.796,210.151l-0.816,24.515c-15.176-1.129-29.495-1.713-42.958-1.713c-0.155,14.398-0.233,30.391-0.233,48.017
			c0,27.355,0.429,53.231,1.245,77.628h-31.907c0.973-24.163,1.479-50.039,1.479-77.628c0-17.315-0.156-33.347-0.467-48.017
			c-10.7,0-25.409,0.623-44.086,1.829l0.896-24.631H242.796z"/>
	</defs>
	<clipPath id="logo-svgid-5">
		<use xlink:href="#logo-svgid-4"  overflow="visible"/>
	</clipPath>
	<linearGradient id="logo-svgid-6" gradientUnits="userSpaceOnUse" x1="656.0908" y1="162.3101" x2="167.3708" y2="297.36">
		<stop  offset="0" style="stop-color:#B508FF"/>
		<stop  offset="0.0762" style="stop-color:#8F3FFE"/>
		<stop  offset="0.1609" style="stop-color:#6A75FC"/>
		<stop  offset="0.2438" style="stop-color:#4BA2FB"/>
		<stop  offset="0.3229" style="stop-color:#33C5FA"/>
		<stop  offset="0.3973" style="stop-color:#22DEFA"/>
		<stop  offset="0.465" style="stop-color:#18EDF9"/>
		<stop  offset="0.52" style="stop-color:#14F2F9"/>
		<stop  offset="1" style="stop-color:#00EB98"/>
	</linearGradient>
	<rect x="125.051" y="90.311" clip-path="url(#logo-svgid-5)" fill="url(#logo-svgid-6)" width="597.51" height="272.373"/>
</g>
</svg>
